<svg xmlns="http://www.w3.org/2000/svg" preserveAspectRatio="none"  viewBox="0 0 400 400">
  <path stroke="null" id="svg_1" d="m126.703755,357.909572c146.038318,0 225.915117,-120.991678 225.915117,-225.915117c0,-3.43656 0,-6.85764 -0.2322,-10.26324a161.549278,161.549278 0 0 0 39.613319,-41.099399a158.484238,158.484238 0 0 1 -45.604079,12.49236a79.675559,79.675559 0 0 0 34.9074,-43.916759a159.118918,159.118918 0 0 1 -50.418359,19.2726a79.474319,79.474319 0 0 0 -135.310678,72.415439a225.419757,225.419757 0 0 1 -163.639078,-82.957319a79.458839,79.458839 0 0 0 24.58224,105.991558a78.808679,78.808679 0 0 1 -36.037439,-9.93816c0,0.32508 0,0.66564 0,1.0062a79.427879,79.427879 0 0 0 63.700199,77.833439a79.273079,79.273079 0 0 1 -35.851679,1.36224a79.489799,79.489799 0 0 0 74.180159,55.139759a159.320158,159.320158 0 0 1 -98.607599,34.056a161.626678,161.626678 0 0 1 -18.90108,-1.14552a224.785077,224.785077 0 0 0 121.703758,35.603999"/>
</svg>